<svg width="512" height="512" viewBox="0 0 512 512" xmlns="http://www.w3.org/2000/svg">
  <!-- 摄像头主体 -->
  <g transform="translate(106, 95)">
    <!-- 主体 -->
    <rect x="0" y="0" width="300" height="180" rx="30" ry="30" fill="#2C3E50" stroke="#1A252F" stroke-width="4"/>
    
    <!-- 镜头外环 -->
    <circle cx="150" cy="90" r="75" fill="#34495E" stroke="#1A252F" stroke-width="4"/>
    
    <!-- 镜头 -->
    <circle cx="150" cy="90" r="52" fill="#1C1C1C" stroke="#0F0F0F" stroke-width="3"/>
    <circle cx="150" cy="90" r="37" fill="#333333"/>
    <circle cx="150" cy="90" r="22" fill="#1A1A1A"/>
    
    <!-- 镜头反光 -->
    <ellipse cx="135" cy="75" rx="12" ry="18" fill="#FFFFFF" opacity="0.3"/>
    
    <!-- 录制指示灯 -->
    <circle cx="240" cy="45" r="12" fill="#E74C3C" stroke="#C0392B" stroke-width="1">
      <animate attributeName="opacity" values="1;0.3;1" dur="2s" repeatCount="indefinite"/>
    </circle>
    <circle cx="240" cy="45" r="6" fill="#FF6B6B"/>
  </g>
  
  <!-- 速度表盘 -->
  <g transform="translate(380, 320)">
    <!-- 表盘背景 -->
    <circle cx="0" cy="0" r="60" fill="#34495E" stroke="#2C3E50" stroke-width="3"/>
    <circle cx="0" cy="0" r="50" fill="#2C3E50"/>
    
    <!-- 刻度 -->
    <g stroke="#ECF0F1" stroke-width="2">
      <line x1="0" y1="-45" x2="0" y2="-35" transform="rotate(0)"/>
      <line x1="0" y1="-45" x2="0" y2="-40" transform="rotate(30)"/>
      <line x1="0" y1="-45" x2="0" y2="-35" transform="rotate(60)"/>
      <line x1="0" y1="-45" x2="0" y2="-40" transform="rotate(90)"/>
      <line x1="0" y1="-45" x2="0" y2="-35" transform="rotate(120)"/>
      <line x1="0" y1="-45" x2="0" y2="-40" transform="rotate(150)"/>
    </g>
    
    <!-- 指针 -->
    <line x1="0" y1="0" x2="0" y2="-30" stroke="#E74C3C" stroke-width="3" stroke-linecap="round" transform="rotate(45)"/>
    
    <!-- 中心点 -->
    <circle cx="0" cy="0" r="5" fill="#E74C3C"/>
  </g>
  

</svg>